' *******************************************************************************
' Copyright (c) 2026 Contributors to the Eclipse Foundation
'
' See the NOTICE file(s) distributed with this work for additional
' information regarding copyright ownership.
'
' This program and the accompanying materials are made available under the
' terms of the Apache License Version 2.0 which is available at
' https://www.apache.org/licenses/LICENSE-2.0
'
' SPDX-License-Identifier: Apache-2.0
' *******************************************************************************

@startuml
title Component Architecture Diagram

package "<<executable>> Launch Manager" {
    [Launch Manager] as LM
    interface AliveMonitoring 
    
    LM --|> AliveMonitoring : offers
}

package "<<executable>> Monitored Application (MA)" {
    [Application logic] as MA
    [Health Monitor (HM)] as HM

    interface HealthMonitorAPI 

    HM --|> HealthMonitorAPI : implements
    HM --> AliveMonitoring : connects to
    MA --> HealthMonitorAPI : uses
}


@enduml
