' *******************************************************************************
' Copyright (c) 2026 Contributors to the Eclipse Foundation
'
' See the NOTICE file(s) distributed with this work for additional
' information regarding copyright ownership.
'
' This program and the accompanying materials are made available under the
' terms of the Apache License Version 2.0 which is available at
' https://www.apache.org/licenses/LICENSE-2.0
'
' SPDX-License-Identifier: Apache-2.0
' *******************************************************************************

@startuml
title Launch Manager Static Architecture

package "Launch Manager" {
    [Launch Manager] as LM
    interface AliveMonitoring
    interface ConfigurationFiles
    interface HealthStatus
    interface CommandLineArguments
    interface Logging


    LM --> AliveMonitoring : provides
    LM --> ConfigurationFiles : requires
    LM --> CommandLineArguments : requires
    LM --> HealthStatus: offers
    LM --> Logging: requires
}


@enduml